# xmcd
#
# Track frame offsets: 
#        150
#        33897
#        60135
#        78949
#        95817
#        118678
#        137718
#        153216
#        171088
#        189177
#        226622
#        257842
#        278490
#        303444
#        328000
#
# Disc length: 4780 seconds
#
# Revision: 0
# Processed by: cddbd v1.5.2PL0 Copyright (c) Steve Scherf et al.
# Submitted via: ExactAudioCopy v1.0b1
#
DISCID=b312aa0f
DTITLE=Yarbrough and Peoples - Be A Winner
DYEAR=1984
DGENRE=Funk
TTITLE0=Don't Waste Your Time
TTITLE1=I'm Ready To Jam
TTITLE2=I'll Be There
TTITLE3=I Only Love You
TTITLE4=Be A Winner
TTITLE5=The Power
TTITLE6=Who Said That
TTITLE7=Let Me Have It (From The Start)
TTITLE8=I Gave My All (To You)
TTITLE9=Don't Waste Your Time (12" Remix)
TTITLE10=Be A Winner (12" Version)
TTITLE11=I'll Be There (12" Version)
TTITLE12=I Only Love You (12" Versionl)
TTITLE13=Don't Waste Your Time (Special Dance Mix - Dub Edit)
TTITLE14=Be A Winner (12" Dub Version)
EXTD=
EXTT0=
EXTT1=
EXTT2=
EXTT3=
EXTT4=
EXTT5=
EXTT6=
EXTT7=
EXTT8=
EXTT9=
EXTT10=
EXTT11=
EXTT12=
EXTT13=
EXTT14=
PLAYORDER=
